<?xml version="1.0"?>
<svg version="1.1" xmlns="http://www.w3.org/2000/svg" width="290" height="200" style="border: none"><path fill="#085ad4" d="M31.588,94.8l-4.42,1.04l0,29.9c0,6.24-3.64,10.14-9.88,10.14c-1.3,0-3.328-0.26-3.328-0.26l0.468-3.9l2.6,0c3.38,0,4.68-1.82,4.68-4.94l0-30.94l-4.42-1.04l0-2.86l14.3-0.26l0,3.12z M41.3952,108.58l-0.26-6.5s5.72-2.08,10.14-2.08c6.032,0,9.62,2.08,9.62,8.06l0,15.86l4.16,1.04l0,2.86l-8.06,0.26l-1.092-3.64c-1.768,1.768-4.888,4.16-8.528,4.16c-4.94,0-7.8-2.86-7.8-7.8c0-5.98,4.68-8.06,11.96-8.06l4.16,0l0-4.16c0-3.12-1.82-4.68-4.94-4.68s-5.252,0.78-5.252,0.78l-0.728,3.9l-3.38,0z M55.6952,116.12l-3.64,0c-5.2,0-7.176,1.3-7.176,4.42c0,2.34,1.456,3.9,3.796,3.9c3.9,0,7.02-4.16,7.02-4.16l0-4.16z M80.8424,100.52l0.468,3.692c1.196-1.144,5.148-4.212,9.412-4.212c3.744,0,6.032,1.768,7.228,4.472c0.676-0.676,4.888-4.472,9.672-4.472c5.72,0,8.06,3.64,8.06,9.36l0,14.56l3.9,1.3l0,2.86l-12.48,0l0-2.86l3.38-1.3l0-14.04c0-3.64-1.04-5.46-4.42-5.46c-4.42,0-7.28,4.16-7.28,4.16l0,15.34l3.38,1.3l0,2.86l-11.96,0l0-2.86l3.38-1.3l0-14.04c0-3.64-1.04-5.46-4.42-5.46c-4.42,0-7.28,4.16-7.28,4.16l0,15.34l3.38,1.3l0,2.86l-13,0l0-2.86l4.42-1.3l0-19.24l-4.42-1.04l0-2.86z M128.8696,108.58l-0.26-6.5s5.72-2.08,10.14-2.08c6.032,0,9.62,2.08,9.62,8.06l0,15.86l4.16,1.04l0,2.86l-8.06,0.26l-1.092-3.64c-1.768,1.768-4.888,4.16-8.528,4.16c-4.94,0-7.8-2.86-7.8-7.8c0-5.98,4.68-8.06,11.96-8.06l4.16,0l0-4.16c0-3.12-1.82-4.68-4.94-4.68s-5.252,0.78-5.252,0.78l-0.728,3.9l-3.38,0z M143.1696,116.12l-3.64,0c-5.2,0-7.176,1.3-7.176,4.42c0,2.34,1.456,3.9,3.796,3.9c3.9,0,7.02-4.16,7.02-4.16l0-4.16z M173.3608,125.22l0,2.86l-14.404,0l0-2.86l4.42-1.3l0-31.72l-4.42-1.04l0-2.86l9.724-0.26l0,35.88z"/><path fill="#1d7023" d="M195.544,105.04l0,3.08l-5.656,0l0,5.32l5.012,0l0.644-2.296l2.52,0l0,5.656l-14.616,0l0-2.38l2.1-0.84l0-13.16l-2.1-0.84l0-2.38l6.44-0.14l7.84,0l0,5.404l-2.52,0l-0.7-2.044l-4.62,0l0,4.62l5.656,0z M208.57828,113.86l2.52,0.7l0,2.24l-8.988,0l0-2.24l2.24-0.7l0-15.736l-2.24-0.56l0-2.24l6.468-0.224l0,18.76z M224.52456,116.8l-0.252-1.484c-0.392,0.392-1.82,1.764-4.228,1.764c-3.92,0-5.74-2.856-5.74-7.476c0-5.264,2.52-8.204,7.644-8.204c0.672,0,1.484,0.14,2.1,0.28l0-3.556l-2.24-0.56l0-2.24l6.44-0.224l0,18.704l2.24,0.56l0,2.24z M224.04856,112.124l0-6.944c-0.532-0.252-1.372-0.42-2.184-0.42c-2.38,0-3.22,1.82-3.22,4.62c0,2.828,0.784,4.34,2.688,4.34c1.792,0,2.716-1.596,2.716-1.596z M247.63884,110.164l-9.296,0c0.168,2.24,1.456,3.556,3.388,3.556c2.324,0,4.704-1.316,4.704-1.316l1.204,2.324s-2.8,2.352-6.384,2.352c-4.816,0-7.28-2.8-7.28-7.56c0-4.9,2.772-8.12,7.476-8.12c4.172,0,6.356,2.576,6.356,6.58c0,1.064-0.168,2.1-0.168,2.184z M238.39884,107.56l5.068,0c0-1.596-0.672-2.8-2.296-2.8c-1.568,0-2.548,1.148-2.772,2.8z M257.64912,101.68l0.196,1.932s2.66-2.156,5.152-2.156c2.716,0,4.256,1.932,4.256,4.984l0,7.42l1.96,0.7l0,2.24l-7.7,0l0-2.24l1.54-0.7l0-6.664c0-1.288-0.728-2.24-1.904-2.24c-1.736,0-2.996,1.596-2.996,1.596l0,7.308l1.54,0.7l0,2.24l-7.98,0l0-2.24l2.24-0.7l0-9.1l-2.24-0.7l0-2.24z"/></svg>
